<svg width="17" height="14" viewBox="0 0 17 14" fill="none" xmlns="http://www.w3.org/2000/svg">
          <path d="M3.5 14H1.5C0.948 14 0.5 13.552 0.5 13C0.5 12.448 0.948 12 1.5 12H3.5C4.052 12 4.5 12.448 4.5 13C4.5 13.552 4.052 14 3.5 14Z" fill="#575761"></path>
          <path d="M7.5 10H1.5C0.948 10 0.5 9.552 0.5 9C0.5 8.448 0.948 8 1.5 8H7.5C8.052 8 8.5 8.448 8.5 9C8.5 9.552 8.052 10 7.5 10Z" fill="#575761"></path>
          <path d="M11.5 6H1.5C0.948 6 0.5 5.552 0.5 5C0.5 4.448 0.948 4 1.5 4H11.5C12.052 4 12.5 4.448 12.5 5C12.5 5.552 12.052 6 11.5 6Z" fill="#575761"></path>
          <path d="M15.5 2H1.5C0.948 2 0.5 1.552 0.5 1C0.5 0.448 0.948 0 1.5 0H15.5C16.052 0 16.5 0.448 16.5 1C16.5 1.552 16.052 2 15.5 2Z" fill="#575761"></path>
        </svg>