<svg width="14" height="14" viewBox="0 0 14 14" fill="none" xmlns="http://www.w3.org/2000/svg">
            <path d="M3.01875 2.38058L4.27 1.12933C3.30627 0.365478 2.10426 -0.0344691 0.875 -0.000297697H0V1.7497H0.875C1.63879 1.72429 2.39047 1.9455 3.01875 2.38058Z" fill="#5F5E6C"></path>
            <path d="M12.25 0.875H7L2.625 5.25V12.25C2.625 12.4821 2.71719 12.7046 2.88128 12.8687C3.04538 13.0328 3.26794 13.125 3.5 13.125H13.125C13.3571 13.125 13.5796 13.0328 13.7437 12.8687C13.9078 12.7046 14 12.4821 14 12.25V2.625C14 2.16087 13.8156 1.71575 13.4874 1.38756C13.1592 1.05937 12.7141 0.875 12.25 0.875ZM11.375 4.375H7.875C7.64294 4.375 7.42038 4.28281 7.25628 4.11872C7.09219 3.95462 7 3.73206 7 3.5C7 3.26794 7.09219 3.04538 7.25628 2.88128C7.42038 2.71719 7.64294 2.625 7.875 2.625H11.375C11.6071 2.625 11.8296 2.71719 11.9937 2.88128C12.1578 3.04538 12.25 3.26794 12.25 3.5C12.25 3.73206 12.1578 3.95462 11.9937 4.11872C11.8296 4.28281 11.6071 4.375 11.375 4.375Z" fill="#5F5E6C"></path>
          </svg>