<svg width="150" height="41" viewBox="0 0 150 41" fill="none" xmlns="http://www.w3.org/2000/svg">
<g clip-path="url(#clip0)">
<path fill-rule="evenodd" clip-rule="evenodd" d="M3.82185 25.3872C3.5664 24.9787 3.7343 24.4223 4.18761 24.2591C5.29186 23.8608 6.02686 24.3828 6.72471 25.5853C8.07954 27.9204 10.4302 31.2858 13.6677 32.6873C13.265 32.6822 12.8419 32.6576 12.3967 32.6128L12.5746 32.627C8.57279 31.9249 5.60978 28.2471 3.82185 25.3872Z" fill="url(#paint0_linear)"/>
<path fill-rule="evenodd" clip-rule="evenodd" d="M1.27229 26.2781C0.830828 25.642 0.440915 24.9853 0.0990742 24.3095C-0.135941 23.8448 0.060293 23.261 0.54867 23.0798C1.73954 22.6384 2.52865 23.1934 3.27736 24.4839C4.97426 27.4079 8.13535 31.8483 12.5744 32.627C12.5015 32.6217 12.4283 32.6156 12.3554 32.6091C11.796 32.5513 11.2026 32.4612 10.5712 32.333C7.48883 31.7081 3.86931 30.0223 1.26905 26.2725L1.27229 26.2781Z" fill="url(#paint1_linear)"/>
<path fill-rule="evenodd" clip-rule="evenodd" d="M26.4493 40.4466C28.097 40.5894 29.08 38.3259 29.2943 34.9723L23.7229 34.6165C23.5801 38.1928 24.9542 39.9264 26.0782 40.3511C26.2294 40.4018 26.3552 40.4345 26.4493 40.4466Z" fill="url(#paint2_linear)"/>
<path fill-rule="evenodd" clip-rule="evenodd" d="M26.4494 40.4466C18.2756 39.5277 5.78823 34.4591 1.26929 26.2725C3.86955 30.0223 7.4893 31.7081 10.5714 32.333C18.7508 33.9918 20.6323 29.3842 22.8378 27.9866C23.4279 27.6129 24.3867 27.7237 25.1617 28.1638C21.9806 36.8573 24.7871 40.2337 26.4494 40.4466Z" fill="url(#paint3_linear)"/>
<path d="M16.8324 24.4623C18.3502 24.4623 19.5806 23.2319 19.5806 21.7141C19.5806 20.1963 18.3502 18.9659 16.8324 18.9659C15.3146 18.9659 14.0842 20.1963 14.0842 21.7141C14.0842 23.2319 15.3146 24.4623 16.8324 24.4623Z" fill="#00B9F2"/>
<path d="M16.8324 24.4623C18.3502 24.4623 19.5806 23.2319 19.5806 21.7141C19.5806 20.1963 18.3502 18.9659 16.8324 18.9659C15.3146 18.9659 14.0842 20.1963 14.0842 21.7141C14.0842 23.2319 15.3146 24.4623 16.8324 24.4623Z" fill="url(#paint4_linear)"/>
<path opacity="0.75" d="M16.8324 22.2902C17.7874 22.2902 18.5616 21.6348 18.5616 20.8263C18.5616 20.0178 17.7874 19.3623 16.8324 19.3623C15.8774 19.3623 15.1033 20.0178 15.1033 20.8263C15.1033 21.6348 15.8774 22.2902 16.8324 22.2902Z" fill="white"/>
<path fill-rule="evenodd" clip-rule="evenodd" d="M11.5536 27.3872C11.6978 27.3684 11.8467 27.3691 12.0002 27.3933C13.2352 27.5886 14.1183 30.2415 16.8187 32.2775C16.2648 32.444 15.6543 32.5671 14.9783 32.633C13.3984 31.3994 12.1123 29.7703 11.1393 28.2931C11.0246 28.1192 11.009 27.9148 11.0954 27.7256C11.1823 27.5361 11.3469 27.4144 11.5536 27.3872Z" fill="url(#paint5_linear)"/>
<path fill-rule="evenodd" clip-rule="evenodd" d="M7.55267 25.6792C8.76955 25.1348 9.54821 25.6404 10.2846 26.9097C11.3008 28.661 12.8807 30.9956 14.978 32.633C14.5662 32.6732 14.1296 32.6925 13.6666 32.6867C10.845 31.4649 8.69756 28.7518 7.29559 26.5293C7.20131 26.38 7.17901 26.2144 7.23011 26.0454C7.2812 25.8766 7.39151 25.7514 7.55267 25.6792Z" fill="url(#paint6_linear)"/>
<path fill-rule="evenodd" clip-rule="evenodd" d="M11.8052 0.534818L32.5449 17.9374L29.6812 17.981L26.3216 16.1497L27.136 18.8054H25.4043L22.7529 14.204L22.6984 17.9847H21.135L20.0161 12.7122L19.6067 15.3378L18.6358 15.3034L17.7198 11.4605L15.8534 10.4596L12.5024 11.5727L7.6504 17.9847L6.12373 17.9845L7.54055 8.36117L1.75806 2.78303L8.77137 0L11.8052 0.534818Z" fill="#006699"/>
<path fill-rule="evenodd" clip-rule="evenodd" d="M7.65013 17.9847L6.78833 13.4709L12.5021 11.5727L7.65013 17.9847Z" fill="#007CB3"/>
<path fill-rule="evenodd" clip-rule="evenodd" d="M15.2771 6.74229L11.959 9.37251L9.92261 7.67306L11.9346 3.95206L15.2771 6.74229Z" fill="#9DDCF9"/>
<path fill-rule="evenodd" clip-rule="evenodd" d="M11.9346 3.95206L15.277 6.74229L15.2227 3.38751L11.9346 3.95206Z" fill="#0095D5"/>
<path fill-rule="evenodd" clip-rule="evenodd" d="M11.9589 9.37253L6.78833 13.4707L19.71 9.17862L11.9589 9.37253Z" fill="#0095D5"/>
<path fill-rule="evenodd" clip-rule="evenodd" d="M8.08861 4.63714L8.77137 0L1.75806 2.78303L8.08861 4.63714Z" fill="#0095D5"/>
<path fill-rule="evenodd" clip-rule="evenodd" d="M22.7529 14.204L26.323 16.1543L26.1616 12.5661L22.7529 14.204Z" fill="#0095D5"/>
<path fill-rule="evenodd" clip-rule="evenodd" d="M26.3215 16.1497L29.5407 15.4167L29.6812 17.981L26.3215 16.1497Z" fill="#0095D5"/>
<path fill-rule="evenodd" clip-rule="evenodd" d="M21.135 17.9847L20.0161 12.7122L22.7529 14.2041L22.6984 17.9845L21.135 17.9847Z" fill="#0095D5"/>
<path fill-rule="evenodd" clip-rule="evenodd" d="M22.753 14.204L22.7439 9.71344L26.1616 12.5661L22.753 14.204Z" fill="#007CB3"/>
<path fill-rule="evenodd" clip-rule="evenodd" d="M6.78809 13.4709L7.54027 8.36117L8.77132 0L9.92248 7.67307L6.78809 13.4709Z" fill="#00C0F3"/>
<path fill-rule="evenodd" clip-rule="evenodd" d="M8.77124 0L11.9344 3.95206L11.8051 0.534584L8.77124 0Z" fill="#00C0F3"/>
<path fill-rule="evenodd" clip-rule="evenodd" d="M15.2769 6.7423L18.6019 6.23813L19.7099 9.17861L15.2769 6.7423Z" fill="#00C0F3"/>
<path fill-rule="evenodd" clip-rule="evenodd" d="M19.71 9.17862L22.7529 14.204L22.7438 9.71344L19.71 9.17862Z" fill="#00C0F3"/>
<path fill-rule="evenodd" clip-rule="evenodd" d="M26.3216 16.1497L26.1616 12.5661L29.5791 15.4186L26.3216 16.1497Z" fill="#00C0F3"/>
<path fill-rule="evenodd" clip-rule="evenodd" d="M17.7197 11.4605L20.016 12.7122L19.6066 15.3378L18.6356 15.3034L17.7197 11.4605Z" fill="#00C0F3"/>
<path fill-rule="evenodd" clip-rule="evenodd" d="M9.92249 7.67307L11.9589 9.37251L6.78833 13.4707L9.92249 7.67307Z" fill="#6DCFF6"/>
<path fill-rule="evenodd" clip-rule="evenodd" d="M11.9347 3.95206L8.77148 0L9.92264 7.67307L11.9347 3.95206Z" fill="#6DCFF6"/>
<path fill-rule="evenodd" clip-rule="evenodd" d="M15.2771 6.74228L11.959 9.3725L19.7101 9.17859L15.2771 6.74228Z" fill="#6DCFF6"/>
<path fill-rule="evenodd" clip-rule="evenodd" d="M11.9345 3.95206L11.8052 0.534576L15.2227 3.38751L11.9345 3.95206Z" fill="#6DCFF6"/>
<path fill-rule="evenodd" clip-rule="evenodd" d="M15.277 6.74229L15.2227 3.38751L18.602 6.23813L15.277 6.74229Z" fill="#6DCFF6"/>
<path fill-rule="evenodd" clip-rule="evenodd" d="M6.78842 13.4707L7.65022 17.9847L6.12378 17.9845L6.78842 13.4707Z" fill="#6DCFF6"/>
<path opacity="0.25" fill-rule="evenodd" clip-rule="evenodd" d="M11.8052 0.534818L32.5449 17.9374L29.6812 17.981L26.3216 16.1497L27.136 18.8054H25.4043L22.7529 14.204L22.6984 17.9847H21.135L20.0161 12.7122L19.6067 15.3378L18.6358 15.3034L17.7198 11.4605L15.8534 10.4596L12.5024 11.5727L7.6504 17.9847L6.12373 17.9845L7.54055 8.36117L1.75806 2.78303L8.77137 0L11.8052 0.534818Z" fill="url(#paint7_linear)"/>
<path opacity="0.5" fill-rule="evenodd" clip-rule="evenodd" d="M11.8052 0.534818L32.5449 17.9374L29.6812 17.981L26.3216 16.1497L27.136 18.8054H25.4043L22.7529 14.204L22.6984 17.9847H21.135L20.0161 12.7122L19.6067 15.3378L18.6358 15.3034L17.7198 11.4605L15.8534 10.4596L12.5024 11.5727L7.6504 17.9847L6.12373 17.9845L7.54055 8.36117L1.75806 2.78303L8.77137 0L11.8052 0.534818Z" fill="url(#paint8_linear)"/>
<path opacity="0.5" fill-rule="evenodd" clip-rule="evenodd" d="M11.8052 0.534818L32.5449 17.9374L29.6812 17.981L26.3216 16.1497L27.136 18.8054H25.4043L22.7529 14.204L22.6984 17.9847H21.135L20.0161 12.7122L19.6067 15.3378L18.6358 15.3034L17.7198 11.4605L15.8534 10.4596L12.5024 11.5727L7.6504 17.9847L6.12373 17.9845L7.54055 8.36117L1.75806 2.78303L8.77137 0L11.8052 0.534818Z" fill="url(#paint9_linear)"/>
<path opacity="0.5" fill-rule="evenodd" clip-rule="evenodd" d="M21.135 17.9847L20.0161 12.7122L22.7529 14.2041L22.6984 17.9845L21.135 17.9847Z" fill="url(#paint10_linear)"/>
<path opacity="0.5" fill-rule="evenodd" clip-rule="evenodd" d="M26.323 16.1543L22.7529 14.204L25.4041 18.8052H27.1358L26.323 16.1543Z" fill="url(#paint11_linear)"/>
<path opacity="0.5" fill-rule="evenodd" clip-rule="evenodd" d="M17.72 11.4605L20.0162 12.7122L19.6068 15.3378L18.6359 15.3034L17.72 11.4605Z" fill="url(#paint12_linear)"/>
<path fill-rule="evenodd" clip-rule="evenodd" d="M106.927 12.9788H103.99V28.3066H114.547V25.59H106.927V12.9788ZM126.041 16.932V28.3066H123.258V27.0918C122.374 28.0193 121.16 28.5495 119.768 28.5495C116.809 28.5495 114.357 25.9876 114.357 22.6307C114.357 19.2516 116.809 16.6894 119.768 16.6894C121.16 16.6894 122.375 17.2193 123.258 18.1471V16.9323H126.041V16.932ZM123.125 22.6525C123.125 20.8416 121.822 19.3839 120.21 19.3839C118.598 19.3839 117.295 20.7973 117.295 22.6525C117.295 24.4637 118.598 25.855 120.21 25.855C121.822 25.855 123.125 24.4193 123.125 22.6525ZM139.412 22.6305C139.412 19.2513 136.982 16.6891 134 16.6891C132.697 16.6891 131.527 17.1752 130.666 18.0142V11.8746H127.728V28.3064H130.533V27.0916C131.416 28.0191 132.631 28.5493 134 28.5493C136.982 28.5493 139.412 25.9876 139.412 22.6305ZM136.496 22.6525C136.496 24.4637 135.193 25.855 133.581 25.855C131.968 25.855 130.665 24.4193 130.665 22.6525C130.665 20.8416 131.968 19.3839 133.581 19.3839C135.193 19.3839 136.496 20.7973 136.496 22.6525ZM150 24.7287C150 22.255 147.969 21.6289 145.141 21.173C143.729 20.9452 142.888 20.7534 142.888 20.157C142.888 19.7374 143.44 19.2516 144.788 19.2516C145.87 19.2516 146.51 19.671 146.687 20.2011H149.713C149.337 18.0588 147.394 16.6455 144.788 16.6455C141.497 16.6455 139.929 18.5005 139.929 20.2896C139.929 22.8295 142.646 23.379 144.677 23.6911C146.665 23.9962 147.062 24.2651 147.062 24.9056C147.062 25.5684 146.179 25.9216 145.009 25.9216C144.147 25.9216 142.977 25.5682 142.579 24.5965H139.62C139.973 27.0479 142.115 28.5718 145.009 28.5718C147.924 28.5716 150 26.9813 150 24.7287Z" fill="url(#paint13_linear)"/>
<path fill-rule="evenodd" clip-rule="evenodd" d="M42.8119 12.9788H39.8965V28.3066H42.8119V12.9788ZM54.7473 21.6586C54.7473 18.655 52.9803 16.6452 50.308 16.6452C49.0932 16.6452 48.0993 17.1752 47.3705 18.0365V16.932H44.5877V28.3066H47.5031V21.6586C47.5031 20.3779 48.4086 19.4058 49.7119 19.4058C51.6333 19.4058 51.8321 20.9972 51.8321 21.6586V28.3066H54.7475V21.6586H54.7473ZM65.9319 24.7287C65.9319 22.255 63.9008 21.6289 61.073 21.173C59.6615 20.9452 58.8201 20.7534 58.8201 20.157C58.8201 19.7374 59.3724 19.2516 60.7197 19.2516C61.8017 19.2516 62.4424 19.671 62.6189 20.2011H65.6446C65.2693 18.0588 63.3256 16.6455 60.7197 16.6455C57.4288 16.6455 55.8608 18.5005 55.8608 20.2896C55.8608 22.8295 58.5781 23.379 60.6092 23.6911C62.5966 23.9965 62.9944 24.2651 62.9944 24.9056C62.9944 25.5684 62.1113 25.9216 60.9404 25.9216C60.079 25.9216 58.9086 25.5682 58.511 24.5965H55.5515C55.9047 27.0479 58.047 28.5718 60.9401 28.5718C63.8558 28.5716 65.9319 26.9813 65.9319 24.7287ZM69.9165 12.9788H67.0011V15.6954H69.9165V12.9788ZM69.9165 16.932H67.0011V28.3066H69.9165V16.932ZM82.6693 11.8746H79.7539V18.0142C78.8705 17.1752 77.7219 16.6891 76.3966 16.6891C73.4371 16.6891 70.9857 19.2513 70.9857 22.6305C70.9857 25.9876 73.4371 28.5493 76.3966 28.5493C77.7881 28.5493 78.9808 28.0194 79.8863 27.0916V28.3064H82.6691V11.8746H82.6693ZM79.7539 22.6525C79.7539 24.4196 78.4506 25.855 76.8385 25.855C75.2262 25.855 73.9231 24.4635 73.9231 22.6525C73.9231 20.7973 75.2262 19.3839 76.8385 19.3839C78.4506 19.3839 79.7539 20.8416 79.7539 22.6525ZM95.2673 23.757C95.6871 19.2513 92.9039 16.6452 89.547 16.6452C86.3446 16.6452 83.7164 19.3396 83.7164 22.6305C83.7164 25.9212 86.3446 28.5714 89.547 28.5714C92.3739 28.5714 94.3839 27.0033 95.0462 24.6845H91.9322C91.4464 25.59 90.4966 26.0096 89.5247 26.0096C88.1555 26.0096 87.0512 25.1483 86.6757 23.7568H95.2673V23.757ZM86.7201 21.3716C87.1395 20.0465 88.1999 19.207 89.525 19.207C90.9165 19.207 92.021 20.0465 92.3739 21.3716H86.7201ZM102.741 16.7114C101.372 16.4904 100.003 16.9102 99.0749 18.0586V16.9318H96.2921V28.3064H99.2075V22.7185C99.2075 21.813 99.3178 20.8855 99.9362 20.245C100.599 19.5381 101.57 19.4058 102.741 19.5381V16.7114H102.741Z" fill="white"/>
</g>
<defs>
<linearGradient id="paint0_linear" x1="8.87471" y1="28.4267" x2="7.46009" y2="30.5272" gradientUnits="userSpaceOnUse">
<stop stop-color="white"/>
<stop offset="1" stop-color="#6B7B84"/>
</linearGradient>
<linearGradient id="paint1_linear" x1="5.99936" y1="28.6275" x2="4.84195" y2="30.5994" gradientUnits="userSpaceOnUse">
<stop stop-color="white"/>
<stop offset="1" stop-color="#6B7B84"/>
</linearGradient>
<linearGradient id="paint2_linear" x1="22.2037" y1="41.481" x2="28.5341" y2="33.9878" gradientUnits="userSpaceOnUse">
<stop offset="0.4938" stop-color="white"/>
<stop offset="1" stop-color="#6B7B84"/>
</linearGradient>
<linearGradient id="paint3_linear" x1="1.26929" y1="33.3595" x2="26.4493" y2="33.3595" gradientUnits="userSpaceOnUse">
<stop offset="0.6643" stop-color="white"/>
<stop offset="1" stop-color="#6B7B84"/>
</linearGradient>
<linearGradient id="paint4_linear" x1="16.8325" y1="18.7692" x2="16.8325" y2="21.9615" gradientUnits="userSpaceOnUse">
<stop stop-color="white"/>
<stop offset="1" stop-color="white" stop-opacity="0"/>
</linearGradient>
<linearGradient id="paint5_linear" x1="14.357" y1="29.5195" x2="12.8876" y2="31.2209" gradientUnits="userSpaceOnUse">
<stop stop-color="white"/>
<stop offset="1" stop-color="#6B7B84"/>
</linearGradient>
<linearGradient id="paint6_linear" x1="11.3758" y1="28.9505" x2="10.0804" y2="30.6519" gradientUnits="userSpaceOnUse">
<stop stop-color="white"/>
<stop offset="1" stop-color="#6B7B84"/>
</linearGradient>
<linearGradient id="paint7_linear" x1="4.34464" y1="13.2949" x2="10.4783" y2="11.6683" gradientUnits="userSpaceOnUse">
<stop stop-color="white"/>
<stop offset="1" stop-color="white" stop-opacity="0"/>
</linearGradient>
<linearGradient id="paint8_linear" x1="18.8031" y1="8.02046" x2="17.9898" y2="9.17267" gradientUnits="userSpaceOnUse">
<stop stop-color="white"/>
<stop offset="1" stop-color="white" stop-opacity="0"/>
</linearGradient>
<linearGradient id="paint9_linear" x1="19.7753" y1="18.6768" x2="15.1517" y2="11.1733" gradientUnits="userSpaceOnUse">
<stop stop-color="white"/>
<stop offset="1" stop-color="white" stop-opacity="0"/>
</linearGradient>
<linearGradient id="paint10_linear" x1="21.4003" y1="14.2617" x2="21.2858" y2="17.153" gradientUnits="userSpaceOnUse">
<stop stop-color="#0072BC"/>
<stop offset="1" stop-color="white" stop-opacity="0"/>
</linearGradient>
<linearGradient id="paint11_linear" x1="24.6375" y1="15.4149" x2="25.4677" y2="18.3634" gradientUnits="userSpaceOnUse">
<stop stop-color="#0072BC"/>
<stop offset="1" stop-color="white" stop-opacity="0"/>
</linearGradient>
<linearGradient id="paint12_linear" x1="18.8641" y1="11.9872" x2="18.9786" y2="14.8498" gradientUnits="userSpaceOnUse">
<stop stop-color="#0072BC"/>
<stop offset="1" stop-color="white" stop-opacity="0"/>
</linearGradient>
<linearGradient id="paint13_linear" x1="111.119" y1="35.4356" x2="138.549" y2="8.00531" gradientUnits="userSpaceOnUse">
<stop stop-color="#D4EFFC"/>
<stop offset="1" stop-color="#00B9F2"/>
</linearGradient>
<clipPath id="clip0">
<rect width="150" height="40.453" fill="white"/>
</clipPath>
</defs>
</svg>
